<?xml version="1.0" encoding="utf-8"?>
<svg xmlns="http://www.w3.org/2000/svg" viewBox="-553.64 -467.8817 1439.28 1460.6948" width="1439.28px" height="1460.6948px">
  <defs>
    <linearGradient gradientUnits="userSpaceOnUse" id="Gradient10" x1="259.785" x2="1555.07" y1="1144" y2="917.473" gradientTransform="matrix(1, 0, 0, 1, -859.058228, -761.38678)">
      <stop class="stop0" offset="0" stop-color="rgb(183,205,224)" stop-opacity="1"/>
      <stop class="stop1" offset="1" stop-color="rgb(252,238,234)" stop-opacity="1"/>
    </linearGradient>
    <linearGradient gradientUnits="userSpaceOnUse" id="Gradient9" x1="1092.86" x2="900.495" y1="1076.5" y2="329.339" gradientTransform="matrix(1, 0, 0, 1, -859.058228, -761.38678)">
      <stop class="stop0" offset="0" stop-color="rgb(68,86,128)" stop-opacity="1"/>
      <stop class="stop1" offset="1" stop-color="rgb(160,179,202)" stop-opacity="1"/>
    </linearGradient>
    <linearGradient gradientUnits="userSpaceOnUse" id="Gradient8" x1="1315.71" x2="1809.88" y1="1029.58" y2="918.693" gradientTransform="matrix(1, 0, 0, 1, -859.058228, -761.38678)">
      <stop class="stop0" offset="0" stop-color="rgb(50,65,112)" stop-opacity="1"/>
      <stop class="stop1" offset="1" stop-color="rgb(242,235,255)" stop-opacity="1"/>
    </linearGradient>
    <linearGradient gradientUnits="userSpaceOnUse" id="Gradient7" x1="1103.41" x2="1568.55" y1="699.705" y2="602.155" gradientTransform="matrix(1, 0, 0, 1, -859.058228, -761.38678)">
      <stop class="stop0" offset="0" stop-color="rgb(4,15,83)" stop-opacity="1"/>
      <stop class="stop1" offset="1" stop-color="rgb(193,194,223)" stop-opacity="1"/>
    </linearGradient>
    <linearGradient gradientUnits="userSpaceOnUse" id="Gradient6" x1="1368.77" x2="1635.68" y1="849.117" y2="745.32" gradientTransform="matrix(1, 0, 0, 1, -859.058228, -761.38678)">
      <stop class="stop0" offset="0" stop-color="rgb(183,185,232)" stop-opacity="1"/>
      <stop class="stop1" offset="1" stop-color="rgb(251,249,255)" stop-opacity="1"/>
    </linearGradient>
    <linearGradient gradientUnits="userSpaceOnUse" id="Gradient5" x1="813.313" x2="499.998" y1="695.089" y2="527.275" gradientTransform="matrix(1, 0, 0, 1, -859.058228, -761.38678)">
      <stop class="stop0" offset="0" stop-color="rgb(140,161,189)" stop-opacity="1"/>
      <stop class="stop1" offset="1" stop-color="rgb(141,192,217)" stop-opacity="1"/>
    </linearGradient>
    <linearGradient gradientUnits="userSpaceOnUse" id="Gradient4" x1="1213.7" x2="1574.3" y1="1362.15" y2="1361.83" gradientTransform="matrix(1, 0, 0, 1, -859.058228, -761.38678)">
      <stop class="stop0" offset="0" stop-color="rgb(43,52,56)" stop-opacity="1"/>
      <stop class="stop1" offset="1" stop-color="rgb(108,105,187)" stop-opacity="1"/>
    </linearGradient>
    <linearGradient gradientUnits="userSpaceOnUse" id="Gradient3" x1="492.235" x2="370.681" y1="1669.43" y2="1330.78" gradientTransform="matrix(1, 0, 0, 1, -859.058228, -761.38678)">
      <stop class="stop0" offset="0" stop-color="rgb(42,63,109)" stop-opacity="1"/>
      <stop class="stop1" offset="1" stop-color="rgb(175,222,255)" stop-opacity="1"/>
    </linearGradient>
    <linearGradient gradientUnits="userSpaceOnUse" id="Gradient2" x1="702.771" x2="641.637" y1="1184.6" y2="1178.7" gradientTransform="matrix(1, 0, 0, 1, -859.058228, -761.38678)">
      <stop class="stop0" offset="0" stop-color="rgb(135,158,186)" stop-opacity="1"/>
      <stop class="stop1" offset="1" stop-color="rgb(175,190,209)" stop-opacity="1"/>
    </linearGradient>
    <linearGradient gradientUnits="userSpaceOnUse" id="Gradient1" x1="804.08" x2="548.995" y1="1505.61" y2="1454.93" gradientTransform="matrix(1, 0, 0, 1, -859.058228, -761.38678)">
      <stop class="stop0" offset="0" stop-color="rgb(66,82,111)" stop-opacity="1"/>
      <stop class="stop1" offset="1" stop-color="rgb(89,115,154)" stop-opacity="1"/>
    </linearGradient>
  </defs>
  <path d="M -553.13 593.973 C -553.94 582.023 -553.54 565.873 -553.55 553.703 L -553.29 480.663 L -552.93 278.363 L -553.15 23.061 C -553.17 -20.961 -554.62 -73.232 -552.37 -116.22 C -547.92 -214.63 -504.08 -307.11 -430.71 -372.84 C -386.56 -412.5 -333.21 -440.53 -275.5 -454.38 C -210 -470.11 -143.68 -462.66 -76.911 -463.66 C -61.872 -464.05 -47.347 -467.43 -32.244 -467.46 C 18.155 -467.13 68.914 -468.18 119.28 -467.53 C 175.132 -466.81 231.362 -470.03 286.952 -464.94 C 293.902 -464.3 301.772 -464.62 308.962 -464.23 C 315.472 -464.19 326.452 -464.43 332.472 -463.44 L 347.462 -463.35 C 347.792 -463.79 348.432 -464.75 348.952 -465.13 C 353.672 -468.55 419.112 -464.73 430.552 -464.29 C 453.292 -463.7 481.112 -463.28 503.432 -464.21 C 705.102 -472.63 877.732 -315.87 884.332 -113.42 C 885.482 -78.24 885.342 -43.001 885.212 -7.528 L 884.972 162.283 L 885.102 454.583 C 885.202 505.213 885.952 556.013 885.492 606.683 C 885.472 608.913 885.332 612.653 885.122 614.863 C 885.802 697.543 861.792 777.823 810.962 843.583 C 803.142 853.703 794.812 864.833 785.582 873.703 C 757.382 906.333 690.692 952.863 649.732 965.133 C 621.372 979.443 564.012 988.153 532.252 988.733 C 518.152 990.173 497.712 989.653 483.112 989.663 L 407.692 989.533 C 391.322 990.713 375.272 992.983 358.782 992.803 C 258.282 991.653 157.802 990.273 57.325 991.163 C 27.577 991.423 -2.407 993.543 -32.271 992.113 C -47.106 991.403 -61.673 989.473 -76.55 989.603 L -160.7 989.573 C -172.29 989.633 -201.97 990.383 -212.09 988.613 C -270.06 988.023 -331.77 964.243 -381.12 934.573 C -388.3 930.253 -402.99 921.283 -408.25 915.553 C -424.29 906.543 -473.95 855.663 -482.46 838.683 C -489.8 831.593 -502.76 808.793 -507.64 799.963 C -542.41 736.963 -556.18 665.553 -553.13 593.973 Z" fill="url(#Gradient10)" style="stroke-width: 1;" id="object-0"/>
  <path d="M 149.822 -456.7 C 206.352 -459.38 256.812 -448.5 308.932 -428.02 C 398.662 -391.27 470.342 -320.73 508.532 -231.6 C 522.902 -197.13 531.832 -160.65 535.032 -123.45 C 537.892 -93.263 536.542 -41.717 536.512 -10.222 L 536.552 182.598 C 536.592 199.43 536.332 224.804 536.822 242.273 C 536.822 242.423 538.732 244.783 539.122 245.213 C 538.292 245.853 538.922 245.443 536.952 245.823 C 535.042 243.583 521.412 235.116 517.802 232.453 C 505.072 223.071 497.692 215.701 487.742 203.765 L 488.332 201.482 C 472.002 180.054 453.462 167.689 429.662 156.342 C 382.142 136.555 331.752 146.578 294.592 182.162 C 267.582 208.022 255.232 230.226 218.542 246.043 C 152.182 274.643 89.462 248.283 46.135 194.437 C 30.487 175.096 4.635 160.092 -18.865 151.006 C -67.564 139.01 -110.56 152.616 -148.77 185.142 C -165.7 199.549 -182.56 221.583 -199.97 234.519 L -201.06 235.313 C -201.06 176.021 -202.83 116.363 -201.53 57.112 C -200.63 16.248 -201.33 -23.65 -201.62 -64.474 C -201.67 -71.571 -201.34 -79.112 -202.14 -86.141 C -204.24 -82.366 -202.75 21.86 -203.34 35.914 C -205.12 40.21 -203.12 40.461 -204.21 44.889 C -205.32 38.38 -204.68 14.559 -204.64 6.351 L -204.77 -61.696 C -204.79 -69.476 -204.36 -84.682 -205.86 -91.732 C -206.93 -104.2 -204.99 -122.13 -203.53 -134.89 C -196.21 -203.97 -168.44 -269.3 -123.77 -322.51 C -67.431 -389.41 10.338 -434.74 96.315 -450.77 C 114.262 -454.08 131.657 -455.29 149.822 -456.7 Z" fill="url(#Gradient9)" style="stroke-width: 1;" id="object-1"/>
  <path d="M 149.822 -456.7 C 206.352 -459.38 256.812 -448.5 308.932 -428.02 C 398.662 -391.27 470.342 -320.73 508.532 -231.6 C 522.902 -197.13 531.832 -160.65 535.032 -123.45 C 537.892 -93.263 536.542 -41.717 536.512 -10.222 L 536.552 182.598 C 536.592 199.43 536.332 224.804 536.822 242.273 C 536.822 242.423 538.732 244.783 539.122 245.213 C 538.292 245.853 538.922 245.443 536.952 245.823 C 535.042 243.583 521.412 235.116 517.802 232.453 C 505.072 223.071 497.692 215.701 487.742 203.765 L 488.332 201.482 C 503.262 218.896 513.542 227.891 532.672 239.873 C 531.202 219.028 532.182 185.288 532.032 163.171 L 531.942 -16.272 C 531.952 -46.948 533.332 -89.999 530.902 -119.43 C 524.522 -200.2 490.772 -276.38 435.222 -335.38 C 363.042 -410.6 271.532 -449.12 167.662 -450.8 C 68.407 -451.74 -27.099 -412.96 -97.606 -343.1 C -169.49 -272.89 -201.07 -185.21 -202.14 -86.141 C -204.24 -82.366 -202.75 21.86 -203.34 35.914 C -205.12 40.21 -203.12 40.461 -204.21 44.889 C -205.32 38.38 -204.68 14.559 -204.64 6.351 L -204.77 -61.696 C -204.79 -69.476 -204.36 -84.682 -205.86 -91.732 C -206.93 -104.2 -204.99 -122.13 -203.53 -134.89 C -196.21 -203.97 -168.44 -269.3 -123.77 -322.51 C -67.431 -389.41 10.338 -434.74 96.315 -450.77 C 114.262 -454.08 131.657 -455.29 149.822 -456.7 Z" fill="rgb(236,236,239)" style="stroke-width: 1;" id="object-2"/>
  <path d="M 347.462 -463.35 C 347.792 -463.79 348.432 -464.75 348.952 -465.13 C 353.672 -468.55 419.112 -464.73 430.552 -464.29 C 453.292 -463.7 481.112 -463.28 503.432 -464.21 C 705.102 -472.63 877.732 -315.87 884.332 -113.42 C 885.482 -78.24 885.342 -43.001 885.212 -7.528 L 884.972 162.283 L 885.102 454.583 C 885.202 505.213 885.952 556.013 885.492 606.683 C 885.472 608.913 885.332 612.653 885.122 614.863 C 885.802 697.543 861.792 777.823 810.962 843.583 C 803.142 853.703 794.812 864.833 785.582 873.703 C 757.382 906.333 690.692 952.863 649.732 965.133 C 621.372 979.443 564.012 988.153 532.252 988.733 C 518.152 990.173 497.712 989.653 483.112 989.663 L 407.692 989.533 C 409.792 988.373 411.942 987.663 414.202 986.793 L 419.322 986.943 C 459.102 979.763 497.312 965.663 532.232 945.293 C 559.182 931.793 591.632 904.583 613.272 883.513 C 620.552 876.413 627.772 866.803 635.242 859.513 C 664.522 820.613 669.962 812.823 691.512 767.983 C 699.622 745.193 705.832 730.353 711.552 706.133 C 721.582 663.653 720.932 629.453 720.952 586.393 L 721.232 510.023 C 720.652 504.493 721.382 494.833 720.792 487.523 C 718.702 517.213 720.362 548.043 718.472 577.893 C 717.622 591.433 719.632 607.243 717.932 620.553 C 715.732 599.193 719.862 558.203 715.982 539.313 C 715.202 511.443 715.772 480.423 715.712 452.353 L 715.772 263.733 C 702.492 263.693 686.822 263.863 673.772 262.803 C 686.942 261.683 701.272 263.553 714.842 262.253 C 716.582 260.443 715.942 259.863 716.042 256.503 C 693.872 256.113 671.452 256.463 649.332 255.663 C 641.972 256.413 626.272 255.973 618.242 255.923 C 584.892 255.693 570.122 258.403 539.122 245.213 C 538.732 244.783 536.822 242.423 536.822 242.273 C 536.332 224.804 536.592 199.43 536.552 182.598 L 536.512 -10.222 C 536.542 -41.717 537.892 -93.263 535.032 -123.45 C 531.832 -160.65 522.902 -197.13 508.532 -231.6 C 470.342 -320.73 398.662 -391.27 308.932 -428.02 C 289.172 -446.98 193.352 -460.13 164.762 -458.53 C 160.482 -458.29 166.612 -456.69 161.482 -458.74 C 167.272 -461.96 237.872 -459.24 249.912 -460.13 C 276.332 -462.08 305.882 -461.88 332.472 -463.44 L 347.462 -463.35 Z" fill="url(#Gradient8)" style="stroke-width: 1;" id="object-3"/>
  <path d="M 332.472 -463.44 L 347.462 -463.35 C 365.992 -459.59 389.292 -460.61 409.302 -457.17 C 473.132 -446.21 548.362 -412.53 594.602 -366.56 C 604.402 -359.13 619.952 -341.94 627.972 -332.4 C 673.852 -278.58 703.262 -212.67 712.682 -142.57 C 717.772 -105.48 715.732 -38.369 715.822 2.432 L 716.042 256.503 C 693.872 256.113 671.452 256.463 649.332 255.663 C 641.972 256.413 626.272 255.973 618.242 255.923 C 584.892 255.693 570.122 258.403 539.122 245.213 C 538.732 244.783 536.822 242.423 536.822 242.273 C 536.332 224.804 536.592 199.43 536.552 182.598 L 536.512 -10.222 C 536.542 -41.717 537.892 -93.263 535.032 -123.45 C 531.832 -160.65 522.902 -197.13 508.532 -231.6 C 470.342 -320.73 398.662 -391.27 308.932 -428.02 C 289.172 -446.98 193.352 -460.13 164.762 -458.53 C 160.482 -458.29 166.612 -456.69 161.482 -458.74 C 167.272 -461.96 237.872 -459.24 249.912 -460.13 C 276.332 -462.08 305.882 -461.88 332.472 -463.44 Z" fill="url(#Gradient7)" style="stroke-width: 1;" id="object-4"/>
  <path d="M 635.242 859.513 C 640.232 857.373 646.912 847.963 650.732 843.443 C 654.322 846.933 656.992 852.463 660.402 855.783 C 670.132 865.223 693.302 890.873 692.802 904.753 C 691.652 936.423 639.242 963.193 616.162 973.883 C 628.372 973.043 646.192 962.253 649.732 965.133 C 621.372 979.443 564.012 988.153 532.252 988.733 C 518.152 990.173 497.712 989.653 483.112 989.663 L 407.692 989.533 C 409.792 988.373 411.942 987.663 414.202 986.793 L 419.322 986.943 C 459.102 979.763 497.312 965.663 532.232 945.293 C 559.182 931.793 591.632 904.583 613.272 883.513 C 620.552 876.413 627.772 866.803 635.242 859.513 Z" fill="rgb(42,57,89)" style="stroke-width: 1;" id="object-5"/>
  <path d="M 414.202 986.793 L 419.322 986.943 L 419.942 988.183 C 452.492 989.313 485.092 988.213 517.642 988.403 C 522.512 988.433 527.392 988.383 532.252 988.733 C 518.152 990.173 497.712 989.653 483.112 989.663 L 407.692 989.533 C 409.792 988.373 411.942 987.663 414.202 986.793 Z" fill="rgb(122,131,151)" style="stroke-width: 1;" id="object-6"/>
  <path d="M 347.462 -463.35 C 347.792 -463.79 348.432 -464.75 348.952 -465.13 C 353.672 -468.55 419.112 -464.73 430.552 -464.29 C 423.582 -462.06 417.572 -463.69 411.752 -461.75 C 424.962 -461.43 438.762 -456.51 451.452 -452.84 C 517.972 -433.32 577.822 -395.84 624.432 -344.52 C 667.532 -297.08 697.582 -239.27 711.652 -176.74 C 721.162 -135.39 720.032 -110.82 720.552 -68.765 C 720.982 -39.151 721.182 -9.534 721.162 20.083 L 721.402 336.903 L 721.002 438.103 C 720.922 450.593 719.972 475.663 720.792 487.523 C 718.702 517.213 720.362 548.043 718.472 577.893 C 717.622 591.433 719.632 607.243 717.932 620.553 C 715.732 599.193 719.862 558.203 715.982 539.313 C 715.202 511.443 715.772 480.423 715.712 452.353 L 715.772 263.733 C 702.492 263.693 686.822 263.863 673.772 262.803 C 686.942 261.683 701.272 263.553 714.842 262.253 C 716.582 260.443 715.942 259.863 716.042 256.503 L 715.822 2.432 C 715.732 -38.369 717.772 -105.48 712.682 -142.57 C 703.262 -212.67 673.852 -278.58 627.972 -332.4 C 619.952 -341.94 604.402 -359.13 594.602 -366.56 C 548.362 -412.53 473.132 -446.21 409.302 -457.17 C 389.292 -460.61 365.992 -459.59 347.462 -463.35 Z" fill="url(#Gradient6)" style="stroke-width: 1;" id="object-7"/>
  <path d="M -124.8 -443.61 L -123.9 -442.86 C -101.75 -451.39 -79.741 -455.73 -55.689 -458.12 C -48.283 -458.85 -32.831 -460.24 -22.569 -460.15 C 33.745 -459.63 91.333 -461.91 147.612 -458.53 C 148.352 -457.92 149.092 -457.31 149.822 -456.7 C 131.657 -455.29 114.262 -454.08 96.315 -450.77 C 10.338 -434.74 -67.431 -389.41 -123.77 -322.51 C -168.44 -269.3 -196.21 -203.97 -203.53 -134.89 C -204.99 -122.13 -206.93 -104.2 -205.86 -91.732 L -206.22 36.595 C -207.65 59.002 -206.91 90.042 -206.95 112.918 L -206.72 240.963 C -242.56 261.603 -285.83 255.233 -327.27 255.303 C -330.45 253.733 -368.12 254.433 -374.31 254.743 C -376.69 247.513 -379.35 240.453 -380.11 232.818 C -384.14 192.07 -383.64 149.677 -383.62 108.987 L -383.61 -16.277 C -383.55 -60.001 -384.91 -102.06 -380.06 -145.22 C -365.53 -274.63 -269.32 -375.45 -155.23 -428.76 C -146.47 -432.85 -131.87 -437.32 -124.8 -443.61 Z" fill="url(#Gradient5)" style="stroke-width: 1;" id="object-8"/>
  <path d="M 536.832 252.323 C 554.562 260.433 565.292 262.453 584.742 262.773 C 614.342 261.993 644.522 263.453 673.772 262.803 C 686.822 263.863 702.492 263.693 715.772 263.733 L 715.712 452.353 C 715.772 480.423 715.202 511.443 715.982 539.313 C 719.862 558.203 715.732 599.193 717.932 620.553 C 719.632 607.243 717.622 591.433 718.472 577.893 C 720.362 548.043 718.702 517.213 720.792 487.523 C 721.382 494.833 720.652 504.493 721.232 510.023 L 720.952 586.393 C 720.932 629.453 721.582 663.653 711.552 706.133 C 705.832 730.353 699.622 745.193 691.512 767.983 C 669.962 812.823 664.522 820.613 635.242 859.513 C 627.772 866.803 620.552 876.413 613.272 883.513 C 591.632 904.583 559.182 931.793 532.232 945.293 L 530.722 944.413 C 526.312 946.713 499.012 961.003 496.102 961.363 L 495.822 959.873 C 499.622 956.633 508.032 953.863 513.172 951.423 L 512.932 950.693 C 497.462 954.593 471.632 970.183 454.662 971.843 C 469.442 966.003 496.172 957.493 508.942 949.113 L 506.822 949.843 C 497.682 946.673 471.322 943.553 460.642 942.313 C 438.972 939.923 417.342 936.543 395.802 933.313 C 387.232 932.023 376.832 924.493 368.742 929.873 C 367.992 930.373 366.082 931.473 365.212 931.683 C 362.102 932.463 359.702 934.983 357.062 936.923 L 355.532 936.643 L 355.552 936.663 C 357.812 930.793 365.302 930.023 372.602 925.273 C 393.682 911.523 409.882 895.633 428.912 879.893 C 429.472 879.363 430.042 878.823 430.602 878.283 C 490.302 817.683 527.112 738.243 534.762 653.523 C 536.802 631.413 536.362 607.893 536.412 585.593 L 536.662 497.643 L 536.832 252.323 Z" fill="url(#Gradient4)" style="stroke-width: 1;" id="object-9"/>
  <path d="M 720.792 487.523 C 721.382 494.833 720.652 504.493 721.232 510.023 L 720.952 586.393 C 720.932 629.453 721.582 663.653 711.552 706.133 C 705.832 730.353 699.622 745.193 691.512 767.983 C 669.962 812.823 664.522 820.613 635.242 859.513 C 627.772 866.803 620.552 876.413 613.272 883.513 C 591.632 904.583 559.182 931.793 532.232 945.293 L 530.722 944.413 C 526.312 946.713 499.012 961.003 496.102 961.363 L 495.822 959.873 C 499.622 956.633 508.032 953.863 513.172 951.423 L 512.932 950.693 C 497.462 954.593 471.632 970.183 454.662 971.843 C 469.442 966.003 496.172 957.493 508.942 949.113 C 510.632 947.993 517.602 946.603 520.392 945.133 C 627.922 888.533 705.992 775.983 714.492 653.903 C 717.152 615.763 714.652 577.443 715.982 539.313 C 719.862 558.203 715.732 599.193 717.932 620.553 C 719.632 607.243 717.622 591.433 718.472 577.893 C 720.362 548.043 718.702 517.213 720.792 487.523 Z" fill="rgb(160,166,230)" style="stroke-width: 1;" id="object-10"/>
  <path d="M -553.13 593.973 C -551 597.123 -550.32 703.093 -540.13 707.793 C -533.6 691.253 -528.45 656.443 -504.77 659.643 C -471.78 664.113 -422.58 673.483 -390.41 661.033 C -388.2 654.833 -391.45 616.483 -391.1 606.483 C -390.69 595.163 -390.58 579.503 -390.27 567.803 C -390.18 564.423 -390.21 546.343 -389.61 544.443 C -387.5 593.893 -392.67 636.553 -384.36 687.463 C -381.77 703.203 -378.18 718.753 -373.6 734.033 C -371.73 740.163 -359.61 770.293 -359.51 773.333 C -351.77 788.293 -345.39 801.013 -336.38 815.313 C -329.23 826.653 -321.59 836.543 -314.38 847.543 C -320.17 844.203 -319.33 842.913 -323.52 838.073 C -330.02 840.483 -337.47 843.903 -343.71 845.773 C -368.81 853.283 -384.96 856.113 -408.42 868.103 C -413.56 877.293 -414.62 880.823 -411.64 892.123 C -409.57 899.973 -402.54 914.693 -397.74 920.983 C -400.14 919.243 -404.1 916.053 -406.69 915.253 L -408.25 915.553 C -424.29 906.543 -473.95 855.663 -482.46 838.683 C -489.8 831.593 -502.76 808.793 -507.64 799.963 C -542.41 736.963 -556.18 665.553 -553.13 593.973 Z" fill="url(#Gradient3)" style="stroke-width: 1;" id="object-11"/>
  <path d="M -323.52 838.073 C -319.33 842.913 -320.17 844.203 -314.38 847.543 C -314.11 847.793 -313.83 848.043 -313.55 848.293 C -268.88 904.163 -218.87 942.433 -151.77 969.953 C -138.31 973.743 -127.4 978.253 -113.06 981.833 C -101.2 984.793 -87.459 986.613 -76.55 989.603 L -160.7 989.573 C -172.29 989.633 -201.97 990.383 -212.09 988.613 C -270.06 988.023 -331.77 964.243 -381.12 934.573 C -388.3 930.253 -402.99 921.283 -408.25 915.553 L -406.69 915.253 C -404.1 916.053 -400.14 919.243 -397.74 920.983 C -402.54 914.693 -409.57 899.973 -411.64 892.123 C -414.62 880.823 -413.56 877.293 -408.42 868.103 C -384.96 856.113 -368.81 853.283 -343.71 845.773 C -337.47 843.903 -330.02 840.483 -323.52 838.073 Z" fill="rgb(42,57,89)" style="stroke-width: 1;" id="object-12"/>
  <path d="M -151.77 969.953 C -138.31 973.743 -127.4 978.253 -113.06 981.833 C -101.2 984.793 -87.459 986.613 -76.55 989.603 L -160.7 989.573 C -172.29 989.633 -201.97 990.383 -212.09 988.613 C -201.88 987.353 -111.38 985.853 -103.31 987.553 C -101.79 987.873 -100.36 988.113 -98.819 988.293 L -97.868 987.393 C -117.48 982.583 -132.24 979.203 -151.03 971.433 L -151.77 969.953 Z" fill="rgb(122,131,151)" style="stroke-width: 1;" id="object-13"/>
  <path d="M -385.06 -16.011 C -385.23 -108.59 -389.92 -175.41 -345.93 -260.98 C -299.99 -350.35 -224.19 -413.15 -129.58 -444.82 L -124.8 -443.61 C -131.87 -437.32 -146.47 -432.85 -155.23 -428.76 C -269.32 -375.45 -365.53 -274.63 -380.06 -145.22 C -384.91 -102.06 -383.55 -60.001 -383.61 -16.277 L -383.62 108.987 C -383.64 149.677 -384.14 192.07 -380.11 232.818 C -379.35 240.453 -376.69 247.513 -374.31 254.743 C -368.12 254.433 -330.45 253.733 -327.27 255.303 C -346.8 255.833 -366.34 256.173 -385.88 256.313 C -384.52 251.713 -385.07 206.746 -385.08 198.287 L -385.33 47.986 C -384.37 29.058 -385.18 3.415 -385.06 -16.011 Z" fill="rgb(136,171,199)" style="stroke-width: 1;" id="object-14"/>
  <path d="M 308.962 -464.23 C 315.472 -464.19 326.452 -464.43 332.472 -463.44 C 305.882 -461.88 276.332 -462.08 249.912 -460.13 C 237.872 -459.24 167.272 -461.96 161.482 -458.74 C 166.612 -456.69 160.482 -458.29 164.762 -458.53 C 193.352 -460.13 289.172 -446.98 308.932 -428.02 C 256.812 -448.5 206.352 -459.38 149.822 -456.7 C 149.092 -457.31 148.352 -457.92 147.612 -458.53 C 91.333 -461.91 33.745 -459.63 -22.569 -460.15 C -32.831 -460.24 -48.283 -458.85 -55.689 -458.12 C -79.741 -455.73 -101.75 -451.39 -123.9 -442.86 L -124.8 -443.61 L -129.58 -444.82 C -52.176 -467.79 13.287 -461.04 92.316 -461.51 C 163.072 -461.93 238.402 -460.38 308.962 -464.23 Z" fill="rgb(136,171,199)" style="stroke-width: 1;" id="object-15"/>
  <path d="M -385.88 256.313 C -388.56 247.623 -385.01 180.225 -386.06 166.64 C -390 115.461 -383.91 59.095 -387.65 8.174 C -388.63 31.157 -385.96 193.647 -388.78 201.259 C -389.9 125.828 -389.92 50.384 -388.84 -25.048 C -388.49 -98.788 -393.88 -170.01 -361.85 -238.92 C -358.71 -245.68 -344.43 -279.28 -340.15 -281.06 C -340.88 -277.34 -351.95 -258.44 -354.41 -253.11 C -362.64 -235.27 -369.52 -216.85 -375.01 -197.98 C -387.38 -153.95 -388.78 -112.34 -388.19 -66.957 C -387.86 -41.7 -388.86 -18.698 -385.64 6.607 C -384.25 17.527 -385.8 35.795 -385.33 47.986 L -385.08 198.287 C -385.07 206.746 -384.52 251.713 -385.88 256.313 Z" fill="rgb(255,255,255)" style="stroke-width: 1;" id="object-16"/>
  <path d="M 454.662 971.843 C 471.632 970.183 497.462 954.593 512.932 950.693 L 513.172 951.423 C 508.032 953.863 499.622 956.633 495.822 959.873 L 496.102 961.363 C 499.012 961.003 526.312 946.713 530.722 944.413 L 532.232 945.293 C 497.312 965.663 459.102 979.763 419.322 986.943 L 414.202 986.793 C 410.342 983.803 403.482 984.663 398.702 985.043 C 383.492 986.283 370.472 988.273 355.232 986.303 C 358.372 985.403 373.652 985.633 378.232 985.383 C 389.502 984.683 400.742 983.543 411.922 981.963 C 420.322 980.743 450.672 971.853 454.662 971.843 Z" fill="rgb(236,236,239)" style="stroke-width: 1;" id="object-17"/>
  <path d="M -205.86 -91.732 C -204.36 -84.682 -204.79 -69.476 -204.77 -61.696 L -204.64 6.351 C -204.68 14.559 -205.32 38.38 -204.21 44.889 C -203.12 40.461 -205.12 40.21 -203.34 35.914 L -203.4 140.968 C -203.42 155.831 -202.66 180.764 -203.78 194.824 C -204.74 151.469 -201.97 97.794 -204.65 56.177 L -205.15 63.037 C -205.68 55.193 -205.54 43.314 -206.22 36.595 L -205.86 -91.732 Z" fill="rgb(255,255,255)" style="stroke-width: 1;" id="object-18"/>
  <path d="M -36.268 155.434 L -35.041 155.592 C 15.289 162.525 40.94 204.319 75.428 233.588 C 123.338 274.243 201.332 276.523 249.982 236.24 C 295.332 198.682 324.632 144.542 395.192 154.984 C 439.722 161.574 461.272 181.613 490.062 215.075 C 505.322 230.118 513.332 238.192 531.902 249.183 L 532.682 462.613 L 532.862 562.293 C 532.932 625.883 533.792 691.413 507.062 751.253 C 489.972 798.453 457.622 845.893 420.402 880.063 C 416.722 883.433 406.782 893.353 402.932 894.993 L 402.262 894.623 C 410.822 886.583 420.422 879.003 428.662 870.863 C 434.492 865.103 433.372 863.713 440.892 857.603 C 433.302 855.373 428.262 862.013 423.082 862.193 C 411.192 862.603 395.822 866.833 384.372 865.853 C 338.012 861.763 292.012 854.433 245.382 853.593 C 236.082 853.423 224.242 854.033 215.272 853.303 C 192.872 851.453 170.902 852.803 148.442 853.083 C 109.99 853.443 71.546 854.533 33.132 856.343 C -13.271 858.743 -52.122 867.243 -97.528 851.683 C -105.72 848.873 -113.98 845.393 -122.44 843.933 C -120.29 848.953 -98.554 871.333 -93.915 876.593 C -114.04 863.653 -150.63 809.873 -161.7 787.833 C -210.93 692.333 -203.04 610.263 -202.95 506.023 C -203.16 419.793 -202.84 333.563 -201.97 247.333 C -167.87 224.199 -152.98 191.983 -116.74 172.315 C -96.286 161.218 -59.378 148.696 -36.268 155.434 Z" fill="rgb(86,102,133)" style="stroke-width: 1;" id="object-19"/>
  <path d="M -201.97 247.333 C -167.87 224.199 -152.98 191.983 -116.74 172.315 C -96.286 161.218 -59.378 148.696 -36.268 155.434 L -37.669 156.777 C -38.005 156.66 -38.341 156.543 -38.676 156.425 C -48.531 155.725 -67.395 155.389 -76.244 158.033 C -101 165.428 -141.41 183.369 -154.11 206.765 C -163.24 223.589 -150.06 255.303 -147.07 271.313 C -145.03 282.223 -144.74 305.403 -145.67 317.513 C -150.62 382.173 -158.1 446.093 -171.42 509.653 C -177.24 537.433 -185.95 566.053 -191.52 594.083 C -193.77 605.383 -195.63 616.843 -196.76 628.293 C -197.15 632.323 -199.88 635.663 -199.67 640.313 C -197.95 679.443 -189.85 717.893 -175.36 754.283 C -170.6 766.233 -164.93 775.743 -160.56 786.373 L -161.7 787.833 C -210.93 692.333 -203.04 610.263 -202.95 506.023 C -203.16 419.793 -202.84 333.563 -201.97 247.333 Z" fill="url(#Gradient2)" style="stroke-width: 1;" id="object-20"/>
  <path d="M 505.662 750.453 L 507.062 751.253 C 489.972 798.453 457.622 845.893 420.402 880.063 C 416.722 883.433 406.782 893.353 402.932 894.993 L 402.262 894.623 C 410.822 886.583 420.422 879.003 428.662 870.863 C 434.492 865.103 433.372 863.713 440.892 857.603 C 433.302 855.373 428.262 862.013 423.082 862.193 C 411.192 862.603 395.822 866.833 384.372 865.853 C 338.012 861.763 292.012 854.433 245.382 853.593 C 236.082 853.423 224.242 854.033 215.272 853.303 C 192.872 851.453 170.902 852.803 148.442 853.083 C 109.99 853.443 71.546 854.533 33.132 856.343 C -13.271 858.743 -52.122 867.243 -97.528 851.683 C -105.72 848.873 -113.98 845.393 -122.44 843.933 C -120.29 848.953 -98.554 871.333 -93.915 876.593 C -114.04 863.653 -150.63 809.873 -161.7 787.833 L -160.56 786.373 C -158.04 792.143 -148.39 809.373 -143.5 813.313 C -125.42 827.573 -102.19 836.143 -80.832 844.213 C -81.21 844.063 -60.013 848.973 -60.211 848.943 C -23.458 853.923 13.669 848.213 50.6 846.793 C 108.924 844.393 167.302 843.523 225.672 844.213 C 278.822 845.113 331.142 852.973 383.992 855.223 C 395.602 855.723 455.032 838.643 463.062 828.763 C 480.412 807.383 494.102 775.523 505.662 750.453 Z" fill="rgb(152,161,179)" style="stroke-width: 1;" id="object-21"/>
  <path d="M 490.062 215.075 C 505.322 230.118 513.332 238.192 531.902 249.183 L 532.682 462.613 L 532.862 562.293 C 532.932 625.883 533.792 691.413 507.062 751.253 L 505.662 750.453 C 508.392 741.173 512.452 730.833 515.412 721.103 C 521.952 699.793 526.382 677.893 528.642 655.723 C 531.652 626.613 530.462 595.913 530.462 566.443 L 530.482 426.913 L 529.912 309.863 C 529.782 295.323 532.802 267.373 528.812 254.053 C 525.622 243.403 495.132 230.061 490.062 215.075 Z" fill="rgb(152,161,179)" style="stroke-width: 1;" id="object-22"/>
  <path d="M -88.329 890.563 C -86.975 891.153 -77.665 898.923 -75.456 900.673 C -62.414 910.963 -49.085 921.793 -35.062 930.713 C -33.131 931.943 -33.343 931.313 -31.48 933.253 L -32.806 933.513 C -44.977 923.433 -55.643 920.533 -70.49 928.263 C -85.202 935.913 -180.76 942.493 -185.22 946.433 C -181.3 948.723 -151.41 962.063 -151.5 961.963 C -156.63 962.383 -174.36 953.383 -179.84 950.703 C -221.24 930.423 -258.46 902.573 -289.59 868.573 C -299.79 857.533 -306.08 847.703 -316.45 837.093 C -320.44 833.003 -327.96 820.713 -331.61 815.443 C -366.13 765.583 -380.12 701.883 -384.44 642.153 C -386.09 619.363 -383.56 588.883 -383.59 564.983 L -382.63 420.113 C -381.83 368.953 -385.34 315.893 -383.12 265.583 C -378.99 264.413 -358.1 264.943 -352.23 264.523 C -335.4 263.393 -318.84 263.103 -301.97 263.003 C -264.59 262.793 -240.86 266.873 -206.57 250.033 L -206.96 405.423 C -206.99 437.753 -206.42 471.903 -207.29 503.983 C -207.24 553.543 -208.24 604.043 -205.15 653.513 C -204.04 671.283 -200.17 690.523 -196.98 708.053 C -186.94 747.883 -174.89 777.253 -153.43 812.723 C -148.61 820.683 -136.88 835.413 -133.38 841.853 C -118.42 859.703 -105.65 874.863 -88.329 890.563 Z" fill="rgb(136,171,199)" style="stroke-width: 1;" id="object-23"/>
  <path d="M -88.329 890.563 L -88.404 892.283 L -84.833 895.963 C -95.908 905.163 -204.58 905.383 -222.6 901.653 C -236.6 898.613 -249.87 892.883 -261.68 884.783 C -294.85 861.633 -306.19 817.293 -313.55 779.843 C -325.48 719.793 -304.86 670.833 -273.04 621.483 C -252.72 589.983 -236.39 556.923 -210.44 529.033 C -206.95 525.293 -210.07 507.923 -207.29 503.983 C -207.24 553.543 -208.24 604.043 -205.15 653.513 C -204.04 671.283 -200.17 690.523 -196.98 708.053 C -186.94 747.883 -174.89 777.253 -153.43 812.723 C -148.61 820.683 -136.88 835.413 -133.38 841.853 C -118.42 859.703 -105.65 874.863 -88.329 890.563 Z" fill="url(#Gradient1)" style="stroke-width: 1;" id="object-24"/>
  <path d="M -196.98 708.053 C -186.94 747.883 -174.89 777.253 -153.43 812.723 C -148.61 820.683 -136.88 835.413 -133.38 841.853 L -134.21 842.663 C -144.42 833.743 -147.88 837.193 -161.17 834.833 C -175.44 832.293 -193.56 827.963 -199.34 812.893 C -206.19 795.363 -191.63 786.633 -184.38 772.653 C -178.11 760.553 -185.86 753.333 -189.43 741.813 C -191.38 735.523 -192.67 728.753 -194.73 722.753 C -196.53 717.543 -197.25 714.703 -198.35 709.233 L -196.98 708.053 Z" fill="rgb(42,57,89)" style="stroke-width: 1;" id="object-25"/>
</svg>